<?xml version="1.0" standalone="no"?>
<!DOCTYPE svg PUBLIC "-//W3C//DTD SVG 20010904//EN"
 "http://www.w3.org/TR/2001/REC-SVG-20010904/DTD/svg10.dtd">
<svg version="1.0" xmlns="http://www.w3.org/2000/svg"
 width="500.000000pt" height="500.000000pt" viewBox="0 0 500.000000 500.000000"
 preserveAspectRatio="xMidYMid meet">
<metadata>
Created by potrace 1.11, written by Peter Selinger 2001-2013
</metadata>
<g transform="translate(0.000000,500.000000) scale(0.100000,-0.100000)"
fill="#000000" stroke="none">
<path d="M2433 4993 c-13 -2 -67 -29 -120 -60 -211 -120 -256 -143 -266 -136
-5 3 -7 2 -4 -3 5 -9 -424 -258 -439 -254 -4 1 -10 -3 -13 -8 -5 -7 -962 -550
-1096 -621 -126 -67 -180 -107 -192 -141 -9 -26 -12 -336 -12 -1250 -1 -1136
1 -1216 17 -1237 9 -12 125 -86 257 -165 266 -159 592 -355 615 -369 8 -5 281
-167 605 -360 325 -193 602 -359 617 -370 42 -29 156 -27 206 5 20 13 181 108
357 211 397 233 587 344 690 405 70 42 250 148 792 467 77 46 145 83 151 83 5
0 21 9 36 21 l26 20 0 1239 c0 845 -3 1248 -11 1267 -13 36 -40 60 -114 104
-176 105 -832 490 -925 544 -54 31 -372 218 -585 343 -289 171 -403 237 -437
254 -35 17 -100 22 -155 11z m367 -548 c151 -175 304 -353 340 -395 61 -72
194 -226 314 -364 28 -33 50 -65 50 -72 -1 -8 2 -12 6 -9 5 3 63 -58 130 -135
l121 -140 -923 1 c-508 1 -1077 5 -1265 8 l-341 6 91 106 c51 58 205 235 342
394 138 159 281 325 320 369 92 107 257 298 270 312 5 6 61 71 124 143 110
127 115 132 130 113 9 -11 140 -163 291 -337z m-686 113 c-30 -33 -167 -189
-208 -238 -78 -94 -149 -169 -156 -165 -4 3 -7 -1 -6 -8 0 -7 -22 -40 -51 -73
-28 -32 -84 -98 -125 -145 -40 -47 -145 -168 -233 -269 -88 -100 -179 -207
-203 -236 -24 -30 -46 -54 -50 -54 -9 0 -542 314 -542 320 0 6 27 22 310 180
156 87 502 282 700 395 219 125 281 159 290 160 3 0 16 8 30 17 46 31 255 147
264 148 6 0 -4 -15 -20 -32z m921 -78 c6 -4 30 -19 55 -32 49 -27 777 -456
899 -529 40 -24 85 -51 100 -59 102 -56 301 -175 301 -180 -1 -3 -112 -73
-248 -157 l-247 -152 -25 28 c-14 15 -63 73 -110 128 -76 89 -182 212 -334
387 -28 33 -50 65 -50 72 1 8 -2 11 -6 9 -7 -4 -426 473 -510 579 -11 14 130
-62 175 -94z m-2285 -1068 c80 -47 169 -99 197 -114 29 -16 55 -34 58 -39 4
-5 -45 -154 -109 -332 -63 -177 -162 -457 -220 -622 -118 -332 -167 -468 -172
-474 -2 -2 -4 386 -4 862 l0 866 53 -31 c28 -17 117 -69 197 -116z m3698
-1175 l-3 -442 -243 725 c-133 399 -242 730 -242 735 0 13 119 81 134 77 6 -2
8 0 4 4 -4 3 72 56 170 115 l177 109 3 -440 c1 -242 1 -639 0 -883z m-672
1029 c21 -8 21 -9 -18 -79 -22 -40 -59 -108 -83 -152 -232 -433 -634 -1127
-648 -1118 -6 3 -7 1 -3 -5 4 -7 -20 -57 -55 -115 -106 -174 -314 -506 -402
-640 l-83 -128 -131 198 c-149 227 -286 452 -286 470 0 7 -3 11 -5 8 -3 -3
-22 23 -42 58 -20 34 -75 127 -122 207 -47 80 -123 210 -170 290 -47 80 -95
161 -106 180 -11 19 -63 108 -115 198 -92 155 -165 290 -276 507 l-52 100 33
7 c88 20 433 26 1443 23 605 -1 1110 -5 1121 -9z m-2416 -496 c40 -69 124
-210 185 -315 107 -181 311 -528 635 -1080 80 -137 159 -270 174 -293 15 -24
26 -45 24 -47 -7 -6 -1851 345 -1864 356 -8 6 -14 17 -14 25 0 7 48 147 106
311 58 164 144 406 190 538 47 132 96 269 109 305 30 80 104 289 155 435 67
193 48 189 144 29 45 -76 115 -195 156 -264z m2795 -512 c165 -493 297 -899
294 -903 -4 -3 -186 -37 -405 -76 -220 -38 -489 -85 -599 -104 -607 -106 -839
-145 -847 -143 -7 3 112 210 412 718 57 96 134 229 173 295 38 66 120 206 182
310 154 260 379 644 433 738 25 43 48 75 51 70 4 -4 142 -411 306 -905z
m-2498 -1221 c420 -79 765 -146 768 -149 3 -3 4 -147 3 -321 l-3 -317 -232
139 c-128 76 -230 141 -228 143 3 3 -1 5 -8 5 -14 0 -169 92 -178 106 -3 5 -9
8 -13 7 -7 -2 -784 458 -856 507 -19 13 -30 23 -25 23 6 0 353 -65 772 -143z
m2462 119 c-4 -3 -767 -452 -839 -494 -55 -31 -421 -247 -575 -338 l-140 -84
-3 322 c-1 176 0 323 2 326 3 2 286 54 628 113 343 60 684 120 758 133 134 24
177 29 169 22z"/>
</g>
</svg>
